<svg xmlns="http://www.w3.org/2000/svg" viewBox="0 0 24 24"><g id="Icons"><path d="M16,4.5l-2-2H9.99866L8,4.5H1v15H23V4.5Zm-8,1h.41443l.29291-.29309L10.41309,3.5h3.17266l1.70716,1.70715L15.58582,5.5H22V8H14.999v.02173A4.9121,4.9121,0,0,0,9,8.02258V8H2V5.5ZM2,9H8.02258a4.91192,4.91192,0,0,0,0,6H2Zm6,3a4,4,0,1,1,4,4A4.00458,4.00458,0,0,1,8,12Zm9,0a4.95514,4.95514,0,0,0-1.02258-3H22v6H15.97742A4.95514,4.95514,0,0,0,17,12ZM2,18.5V16H9.001v-.02173a4.91228,4.91228,0,0,0,5.998,0V16H22v2.5Z"/></g></svg>