<svg xmlns="http://www.w3.org/2000/svg" viewBox="0 0 24 24"><g id="Icons"><path d="M12,23a11.09079,11.09079,0,0,1-1.50977-.106l-.37988-.05224-.2959-2.34034a8.71813,8.71813,0,0,1-2.06152-.81835L5.92969,21.1792l-.3125-.22266a11.05268,11.05268,0,0,1-2.38867-2.31933l-.23145-.30567,1.44727-1.8667a8.682,8.682,0,0,1-.87891-2.03515l-2.35059-.23145-.0625-.37793a10.90293,10.90293,0,0,1-.04687-3.3291l.05176-.37988L3.499,9.81494a8.62749,8.62749,0,0,1,.81836-2.062L2.82031,5.93018l.22266-.312A11.048,11.048,0,0,1,5.36328,3.229L5.669,2.99756,7.53516,4.44434a8.72767,8.72767,0,0,1,2.03418-.87891l.23242-2.34961.37793-.063A10.88734,10.88734,0,0,1,13.50977,1.106l.37988.05224.2959,2.34034a8.71813,8.71813,0,0,1,2.06152.81835L18.07031,2.8208l.3125.22266a11.05268,11.05268,0,0,1,2.38867,2.31933l.23145.30567-1.44727,1.8667a8.682,8.682,0,0,1,.87891,2.03515l2.35059.23145.0625.37793a10.90293,10.90293,0,0,1,.04687,3.3291l-.05176.37988-2.34179.29639a8.62749,8.62749,0,0,1-.81836,2.062l1.49707,1.82275-.22266.312A11.048,11.048,0,0,1,18.63672,20.771l-.30567.23144-1.86621-1.44678a8.72767,8.72767,0,0,1-2.03418.87891l-.23242,2.34961-.37793.063A11.08936,11.08936,0,0,1,12,23Zm-.99414-1.05127a9.8024,9.8024,0,0,0,2.27344-.03223l.22461-2.27783.34472-.084a7.74833,7.74833,0,0,0,2.377-1.02637l.29785-.19287L18.332,19.73779a9.99356,9.99356,0,0,0,1.584-1.63086l-1.45118-1.76806.18457-.30323a7.69063,7.69063,0,0,0,.95508-2.40673l.07422-.34717,2.27051-.2876C21.98242,12.65723,22,12.32422,22,12a10.15175,10.15175,0,0,0-.083-1.27881l-2.27929-.22461-.084-.34472a7.69124,7.69124,0,0,0-1.02539-2.37647l-.19238-.29785,1.40234-1.81006a10.02871,10.02871,0,0,0-1.63086-1.583l-1.76855,1.4502-.30274-.18408a7.73084,7.73084,0,0,0-2.40722-.95606l-.34668-.07373-.28809-2.26953a9.72227,9.72227,0,0,0-2.27344.03223l-.22461,2.27783-.34472.084a7.74833,7.74833,0,0,0-2.377,1.02637l-.29785.19287L5.668,4.26221A9.99356,9.99356,0,0,0,4.084,5.89307L5.53516,7.66113l-.18457.30323a7.69063,7.69063,0,0,0-.95508,2.40673l-.07422.34717-2.27051.2876C2.01758,11.34277,2,11.67578,2,12a10.15175,10.15175,0,0,0,.083,1.27881l2.27929.22461.084.34472a7.69124,7.69124,0,0,0,1.02539,2.37647l.19238.29785L4.26172,18.33252a10.02871,10.02871,0,0,0,1.63086,1.583l1.76855-1.4502.30274.18408a7.73084,7.73084,0,0,0,2.40722.95606l.34668.07373Z"/><path d="M12,17a5,5,0,1,1,5-5A5.00588,5.00588,0,0,1,12,17Zm0-9a4,4,0,1,0,4,4A4.00427,4.00427,0,0,0,12,8Z"/></g></svg>