<svg xmlns="http://www.w3.org/2000/svg" viewBox="0 0 24 24"><g id="Icons"><circle cx="12" cy="12" r="1.5"/><polygon points="5 12.5 1 12.5 2 11.5 6 11.5 5 12.5"/><polygon points="22 12.5 18 12.5 19 11.5 23 11.5 22 12.5"/><polygon points="11.5 2 11.5 6 12.5 5 12.5 1 11.5 2"/><polygon points="11.5 19 11.5 23 12.5 22 12.5 18 11.5 19"/><path d="M4.14594,10.5A8.01576,8.01576,0,0,1,10.5,4.146V3.135A8.99278,8.99278,0,0,0,3.135,10.5Z"/><path d="M13.5,4.146A8.01553,8.01553,0,0,1,19.85406,10.5h1.011A8.99264,8.99264,0,0,0,13.5,3.135Z"/><path d="M19.85406,13.5A8.01553,8.01553,0,0,1,13.5,19.854v1.011A8.99264,8.99264,0,0,0,20.86505,13.5Z"/><path d="M10.5,19.854A8.01576,8.01576,0,0,1,4.14594,13.5H3.135A8.99278,8.99278,0,0,0,10.5,20.865Z"/></g></svg>