<svg xmlns="http://www.w3.org/2000/svg" viewBox="0 0 24 24"><g id="Icons"><rect x="-0.72792" y="11.50005" width="25.45584" height="0.99989" transform="translate(-4.97056 12) rotate(-45)"/><path d="M12,14.5A2.50263,2.50263,0,0,0,14.5,12a2.45974,2.45974,0,0,0-.03479-.34412l-2.80933,2.80933A2.46066,2.46066,0,0,0,12,14.5Z"/><path d="M9.5,12a2.45974,2.45974,0,0,0,.03479.34412l2.80933-2.80933A2.46066,2.46066,0,0,0,12,9.5,2.50263,2.50263,0,0,0,9.5,12Z"/><path d="M6.46472,15.41418A18.39777,18.39777,0,0,1,2.167,12,17.87561,17.87561,0,0,1,7.47742,8.06934a5.95777,5.95777,0,0,0-.64026,6.97241l.74689-.74683A4.93551,4.93551,0,0,1,7,12a5.00588,5.00588,0,0,1,5-5c.21521,0,.42194.02991.63312.04468a5.08022,5.08022,0,0,1,1.66174.5393l.74689-.74682h-.00006l.30761-.30762A11.20317,11.20317,0,0,0,12,6a6.02729,6.02729,0,0,0-.63312.03418c-5.83825.35388-10.07074,5.42505-10.2536,5.64941L.85352,12l.25976.31641a18.63353,18.63353,0,0,0,4.60834,3.84082Z"/><path d="M22.88672,11.68359a18.63353,18.63353,0,0,0-4.60834-3.84082l-.7431.74305A18.39777,18.39777,0,0,1,21.833,12a17.87561,17.87561,0,0,1-5.31043,3.93066,5.95777,5.95777,0,0,0,.64026-6.97241l-.74689.74683A4.93551,4.93551,0,0,1,17,12a5.00588,5.00588,0,0,1-5,5c-.21527,0-.42206-.02991-.6333-.04468a5.08441,5.08441,0,0,1-1.66156-.5393l-.74689.74682h.00006l-.30761.30762A11.20317,11.20317,0,0,0,12,18a6.02729,6.02729,0,0,0,.63312-.03418c5.83825-.35388,10.07074-5.42505,10.2536-5.64941L23.14648,12Z"/></g></svg>