<svg xmlns="http://www.w3.org/2000/svg" viewBox="0 0 24 24"><g id="Icons"><path d="M12,14.5A2.5,2.5,0,1,0,9.5,12,2.50263,2.50263,0,0,0,12,14.5Zm0-4A1.5,1.5,0,1,1,10.5,12,1.50164,1.50164,0,0,1,12,10.5Z"/><path d="M22.88672,11.68359c-.18286-.22436-4.41535-5.29553-10.2536-5.64941a5.88077,5.88077,0,0,0-1.26624,0c-5.83825.35388-10.07074,5.42505-10.2536,5.64941L.85352,12l.25976.31641c.18286.22436,4.41535,5.29553,10.2536,5.64941a5.88077,5.88077,0,0,0,1.26624,0c5.83825-.35388,10.07074-5.42505,10.2536-5.64941L23.14648,12ZM17,12a5,5,0,1,1-5-5A5.00588,5.00588,0,0,1,17,12ZM2.167,12A17.87561,17.87561,0,0,1,7.47742,8.06934a5.96745,5.96745,0,0,0,0,7.86132A17.87561,17.87561,0,0,1,2.167,12Zm14.35559,3.93066a5.96745,5.96745,0,0,0,0-7.86132A17.87561,17.87561,0,0,1,21.833,12,17.87561,17.87561,0,0,1,16.52258,15.93066Z"/></g></svg>