<svg xmlns="http://www.w3.org/2000/svg" viewBox="0 0 24 24"><g id="Icons"><path d="M9.9834,20.79314l-.71387.70019.35059.35694q.51371.52386,1.02423,1.00537l.70679-.70679q-.50776-.479-1.01813-.99878Z"/><path d="M5.19238,13.3532c-.06946-.44239-.127-.89685-.16-1.35328H4.03125c.03333.51783.09668,1.02222.17285,1.50757.25464,1.62476.26886,2.26331-.30823,2.88831l.7038.70373C5.55182,16.08171,5.45325,15.01848,5.19238,13.3532Z"/><path d="M7.66211,12.96648A10.20491,10.20491,0,0,1,7.5,11.50163,4.473,4.473,0,0,1,9.98535,7.47771,4.52147,4.52147,0,0,1,12,7.00017a4.4738,4.4738,0,0,1,2.92151,1.07825l.70618-.70618A5.49728,5.49728,0,0,0,6.5,11.50163a10.77811,10.77811,0,0,0,.1748,1.61914c.2754,1.76221.5879,3.75928-1.48925,5.49024l-.59449.48.71149.71143.51776-.418C8.33887,17.28533,7.94824,14.78923,7.66211,12.96648Z"/><path d="M16.91992,9.04265a5.58837,5.58837,0,0,0-.35675-.606L16.5,8.49992l-.66547.66553c.06495.10694.13416.21045.19086.324a12.99188,12.99188,0,0,0,3.70306,4.78222l.71088-.71093A12.1852,12.1852,0,0,1,16.91992,9.04265Z"/><path d="M9.98145,16.93425,9.376,16.0739l-.28516,1.01221a6.73082,6.73082,0,0,1-2.11426,3.28222c-.01965.01734-.04181.02967-.06189.04627l.71179.71179.01221-.009a7.98328,7.98328,0,0,0,2.09082-2.84131A24.666,24.666,0,0,0,14.291,22.70891l.70336-.70337A22.94188,22.94188,0,0,1,9.98145,16.93425Z"/><path d="M7.74609,3.008A9.48489,9.48489,0,0,1,18.19647,4.30339l.706-.70605A10.47547,10.47547,0,0,0,7.29785,2.11394,10.54889,10.54889,0,0,0,4.8288,3.82878l.7063.7063A9.55123,9.55123,0,0,1,7.74609,3.008Z"/><path d="M12,3.50017a8.0324,8.0324,0,0,0-3.582.84863A7.93659,7.93659,0,0,0,4.0694,10.49992H5.07153a6.94847,6.94847,0,0,1,3.7937-5.25708A7.03432,7.03432,0,0,1,12,4.50017a6.95967,6.95967,0,0,1,6.26172,3.87158,13.80867,13.80867,0,0,0,1.25409,2.11231l.70959-.70948A13.41379,13.41379,0,0,1,19.15625,7.925,7.95285,7.95285,0,0,0,12,3.50017Z"/><path d="M10.21094,12.39617a2.00023,2.00023,0,1,1,3.57812-1.78907,16.00222,16.00222,0,0,0,5.56659,6.53736L20.07,16.4301a15.1886,15.1886,0,0,1-5.38642-6.27026,3.00034,3.00034,0,0,0-5.36718,2.68359A22.08511,22.08511,0,0,0,12.171,17.3289l.71082-.71081A21.20716,21.20716,0,0,1,10.21094,12.39617Z"/><path d="M17.33789,20.62908a25.38144,25.38144,0,0,1-3.50726-2.95972l-.70874.70874a26.34312,26.34312,0,0,0,3.52087,2.97925l.71643-.71631C17.35242,20.6364,17.3446,20.634,17.33789,20.62908Z"/><path d="M12.44727,11.278l-.89454.44727a18.10841,18.10841,0,0,0,5.73291,6.989l.71405-.71411A17.28513,17.28513,0,0,1,12.44727,11.278Z"/></g></svg>