<svg xmlns="http://www.w3.org/2000/svg" viewBox="0 0 24 24"><g id="Icons"><path d="M15.37384,13.12341a7.256,7.256,0,1,0-2.2337,2.24048L18.293,20.5H19.207L20.5,19.207V18.294ZM9.25,15.49976a6.24995,6.24995,0,1,1,4.41943-1.83057A6.20884,6.20884,0,0,1,9.25,15.49976ZM19.5,18.793l-.707.707H18.707l-4.756-4.739c.14453-.12354.28876-.24793.42548-.38465.14087-.14087.26928-.28918.39611-.43835L19.5,18.70605Z"/><polygon points="9.75 5 8.75 5 8.75 8.75 5 8.749 5 9.749 8.749 9.75 8.749 13.5 9.749 13.5 9.749 9.75 13.5 9.75 13.5 8.75 9.75 8.75 9.75 5"/></g></svg>