<svg xmlns="http://www.w3.org/2000/svg" viewBox="0 0 24 24"><defs><style>.cls-1{fill:none;}</style></defs><g id="Icons"><path d="M12,6.00005a3,3,0,1,1-3,3,3.0034,3.0034,0,0,1,3-3m0-1a4,4,0,1,0,4,4,4,4,0,0,0-4-4Z"/><path d="M12,3.00005a6.00684,6.00684,0,0,1,6,6c0,3.39209-3.73108,8.75732-6,11.82751C9.73107,17.75737,6,12.39214,6,9.00005a6.00683,6.00683,0,0,1,6-6m0-1a7,7,0,0,0-7,7c0,3.866,4,9.5,7,13.5,3-4,7-9.634,7-13.5a6.99992,6.99992,0,0,0-7-7Z"/><rect class="cls-1" width="24" height="24"/></g></svg>