<svg xmlns="http://www.w3.org/2000/svg" viewBox="0 0 24 24"><g id="Icons"><path d="M19,16a2.9881,2.9881,0,0,0-2.41431,1.23376L7.85681,12.86938a2.71082,2.71082,0,0,0,0-1.73876L16.42822,6.845a3.0637,3.0637,0,1,0-.571-1.77356,3.03842,3.03842,0,0,0,.1405.87073l-8.58343,4.2915a3,3,0,1,0,.00006,3.5326l8.72882,4.36438A2.967,2.967,0,0,0,16,19a3,3,0,1,0,3-3ZM18.92859,3a2.07141,2.07141,0,1,1-2.07141,2.07141A2.07376,2.07376,0,0,1,18.92859,3ZM5,14a2,2,0,1,1,2-2A2.0023,2.0023,0,0,1,5,14Zm14,7a2,2,0,1,1,2-2A2.0023,2.0023,0,0,1,19,21Z"/></g></svg>