<svg xmlns="http://www.w3.org/2000/svg" viewBox="0 0 24 24"><g id="Icons"><path d="M12,2.75A9.23244,9.23244,0,0,0,3.23083,14.9231l.94813-.31617A8.24036,8.24036,0,0,1,18.72412,7.23706l.81525-.57739A9.2383,9.2383,0,0,0,12,2.75Z"/><path d="M20.25,12A8.242,8.242,0,0,1,5.27588,16.76294l-.81525.57739A9.23814,9.23814,0,0,0,20.76917,9.0769l-.94806.31617A8.20183,8.20183,0,0,1,20.25,12Z"/><polygon points="19.75 7.5 15.083 7.5 15.083 6.5 18.75 6.5 18.75 2.833 19.75 2.833 19.75 7.5"/><polygon points="5.25 21.167 4.25 21.167 4.25 16.5 8.917 16.5 8.917 17.5 5.25 17.5 5.25 21.167"/></g></svg>