<svg xmlns="http://www.w3.org/2000/svg" viewBox="0 0 24 24"><g id="Icons"><path d="M12.1543,7a3.13931,3.13931,0,0,1,2.19824.77686,2.64011,2.64011,0,0,1,.85351,2.05126,2.65,2.65,0,0,1-.27246,1.28077,3.97372,3.97372,0,0,1-1.001,1.085,3.69467,3.69467,0,0,0-.93164,1.022,2.74065,2.74065,0,0,0-.25879,1.30225H11.23047v-.05616a4.10158,4.10158,0,0,1,.28027-1.75,2.76947,2.76947,0,0,1,.90918-1.12011,4.079,4.079,0,0,0,.79883-.791,1.58386,1.58386,0,0,0,.2373-.917A1.57845,1.57845,0,0,0,13.043,8.78467a1.26186,1.26186,0,0,0-.959-.45459,1.53967,1.53967,0,0,0-1.23828.51758,2.374,2.374,0,0,0-.4414,1.56836H8.794a3.44986,3.44986,0,0,1,.89648-2.46436A3.22054,3.22054,0,0,1,12.1543,7Zm.74218,8.48389v1.75h-1.876v-1.75Z"/><path d="M12,23A11,11,0,1,1,23,12,11.01245,11.01245,0,0,1,12,23ZM12,2A10,10,0,1,0,22,12,10.01146,10.01146,0,0,0,12,2Z"/></g></svg>