<svg xmlns="http://www.w3.org/2000/svg" viewBox="0 0 24 24"><g id="Icons"><path d="M12,3.5a.50063.50063,0,0,1,.49908.4696l-.00647.05164-.002.023-.08227.92285.914.15234a8.03475,8.03475,0,0,1,6.654,7.43567L20,12.84485v2.56933l.29291.293.70709.707V19H13.635l-.26215.59912a1.49641,1.49641,0,0,1-2.7456,0L10.365,19H3V16.41418l.70709-.707L4,15.41418V12.98511l.02368-.43006a8.035,8.035,0,0,1,6.65405-7.43567l.91394-.15234-.08227-.92285-.00861-.07275A.5007.5007,0,0,1,12,3.5m0-1A1.5,1.5,0,0,0,10.5,4c0,.04553.0094.08838.01337.13293A8.98851,8.98851,0,0,0,3.02521,12.5H3V15L2,16v4H9.71106a2.49642,2.49642,0,0,0,4.57788,0H22V16l-1-1V12.5h-.02521a8.98833,8.98833,0,0,0-7.48816-8.36707C13.4906,4.08838,13.5,4.04553,13.5,4A1.5,1.5,0,0,0,12,2.5Z"/></g></svg>