<svg xmlns="http://www.w3.org/2000/svg" viewBox="0 0 24 24"><g id="Icons"><path d="M16.343,3.5A5.09264,5.09264,0,0,1,19.986,5.02539a5.27537,5.27537,0,0,1,.01227,7.379L12,20.516,4.00287,12.40564A5.27582,5.27582,0,0,1,4.014,5.02539a5.11477,5.11477,0,0,1,7.27746-.01025L12,5.72644l.7085-.7113A5.0985,5.0985,0,0,1,16.343,3.5m0-1A6.111,6.111,0,0,0,12,4.30945a6.11473,6.11473,0,0,0-8.69666.01245,6.26787,6.26787,0,0,0-.01361,8.78479l8.69513,8.81824L12,21.90967l.01514.01526,8.69513-8.81836a6.26767,6.26767,0,0,0-.01361-8.78467A6.10576,6.10576,0,0,0,16.343,2.5Z"/></g></svg>