<svg xmlns="http://www.w3.org/2000/svg" viewBox="0 0 24 24"><g id="Icons"><path d="M12,3.387l1.6413,5.31152.21777.70472h6.18469l-4.44922,3.3988-.55432.42346.20593.6665,1.6731,5.41407-4.31219-3.29419L12,15.54814l-.60706.46375L7.08075,19.30608,8.75385,13.892l.20593-.6665-.55432-.42346L3.95624,9.40325h6.18469l.21777-.70472L12,3.387m.33441-2.30493h-.66882L9.40326,8.40325H2.03473l-.21253.62817,5.9762,4.56531-2.2735,7.357.54688.38147L12,16.80657l5.92822,4.52868.54688-.38147-2.2735-7.357,5.9762-4.56531-.21253-.62817H14.59674L12.33441,1.08208Z"/></g></svg>